<?xml version="1.0" encoding="UTF-8"?>
<svg width="27px" height="19px" viewBox="0 0 27 19" version="1.1" xmlns="http://www.w3.org/2000/svg" xmlns:xlink="http://www.w3.org/1999/xlink">
    <!-- Generator: Sketch 3.6.1 (26313) - http://www.bohemiancoding.com/sketch -->
    <title>Broken clouds</title>
    <desc>Created with Sketch.</desc>
    <defs></defs>
    <g id="Page-1" stroke="none" stroke-width="1" fill-rule="evenodd">
        <g id="weather_icons" transform="translate(-315.000000, -60.000000)">
            <g id="Broken-clouds" transform="translate(315.000000, 60.000000)">
                <path d="M5.7,19 L17.7,19 C20.6,19 23.2,16.2 23.2,13 C23.2,12.4 23.1,11.9 23,11.3 C24.9,10.8 26.2,9.2 26.2,7.2 C26.2,5 24.5,3.2 22.3,3 C21.8,1.2 20.1,0 18.2,0 C16.2,0 14.6,1.3 14.1,3.2 C13.6,3.1 13.2,3 12.7,3 C10.1,3 7.9,4.8 7.4,7.3 C6.9,7.1 6.3,7 5.7,7 C2.8,7 0.2,9.8 0.2,13 C0.2,16.2 2.8,19 5.7,19 L5.7,19 L5.7,19 L5.7,19 Z M18.2,1 C19.7,1 21.1,2.1 21.4,3.6 C21.4,3.8 21.7,4 22,4 C23.8,4 25.3,5.5 25.3,7.3 C25.3,8.8 24.2,10.1 22.7,10.5 C21.8,8.6 20.1,7.2 18.1,7.1 C17.7,5.6 16.6,4.3 15.2,3.6 C15.4,2.1 16.7,1 18.2,1 L18.2,1 L18.2,1 L18.2,1 Z M5.7,8 C6.3,8 7,8.1 7.5,8.4 C7.6,8.5 7.8,8.5 8,8.4 C8.1,8.3 8.2,8.2 8.3,8 C8.6,5.7 10.5,4 12.7,4 C14.8,4 16.7,5.5 17.1,7.6 C17.1,7.8 17.4,8 17.6,8 L17.7,8 C20.3,8 22.2,10.6 22.2,13 C22.2,15.4 20.3,18 17.7,18 L5.7,18 C3.1,18 1.2,15.4 1.2,13 C1.2,10.6 3.1,8 5.7,8 L5.7,8 L5.7,8 L5.7,8 Z" id="Shape"></path>
            </g>
        </g>
    </g>
</svg>