<?xml version="1.0" encoding="UTF-8"?>
<svg width="30px" height="25px" viewBox="0 0 30 25" version="1.1" xmlns="http://www.w3.org/2000/svg" xmlns:xlink="http://www.w3.org/1999/xlink">
    <!-- Generator: Sketch 3.6.1 (26313) - http://www.bohemiancoding.com/sketch -->
    <title>Few clouds</title>
    <desc>Created with Sketch.</desc>
    <defs></defs>
    <g id="Page-1" stroke="none" stroke-width="1" fill-rule="evenodd">
        <g id="weather_icons" transform="translate(-105.000000, -4.000000)">
            <g id="Few-clouds" transform="translate(105.000000, 4.000000)">
                <path d="M18.5,3.5 C18.8,3.5 19,3.3 19,3 L19,1 C19,0.7 18.8,0.5 18.5,0.5 C18.2,0.5 18,0.7 18,1 L18,3 C18,3.3 18.2,3.5 18.5,3.5 L18.5,3.5 L18.5,3.5 L18.5,3.5 Z" id="Shape"></path>
                <path d="M29,11 L27,11 C26.7,11 26.5,11.2 26.5,11.5 C26.5,11.8 26.7,12 27,12 L29,12 C29.3,12 29.5,11.8 29.5,11.5 C29.5,11.2 29.3,11 29,11 L29,11 L29,11 L29,11 Z" id="Shape"></path>
                <path d="M18.3,24 C21.3,24 23.8,21.4 23.8,18.4 C23.8,17.1 23.3,15.9 22.6,15 C23.8,13.9 24.6,12.3 24.6,10.7 C24.6,7.5 22,4.9 18.8,4.9 C16.3,4.9 14.1,6.5 13.3,8.9 C10.7,8.9 8.6,10.7 8,13.2 C7.5,13 6.9,12.9 6.3,12.9 C3.3,12.9 0.8,15.5 0.8,18.5 C0.8,21.6 3.3,24.1 6.3,24.1 L18.3,24.1 L18.3,24 L18.3,24 L18.3,24 Z M18.7,5.7 C21.4,5.7 23.5,7.9 23.5,10.5 C23.5,11.9 22.9,13.2 21.9,14.1 C21,13.3 19.8,12.7 18.6,12.6 C18,10.6 16.3,9.1 14.3,8.7 C14.9,7 16.7,5.7 18.7,5.7 L18.7,5.7 L18.7,5.7 L18.7,5.7 Z M1.8,18.4 C1.8,15.9 3.9,13.8 6.3,13.8 C6.9,13.8 7.6,13.9 8.1,14.2 C8.2,14.3 8.4,14.3 8.6,14.2 C8.7,14.1 8.8,14 8.8,13.8 C9.1,11.5 11,9.8 13.2,9.8 C15.3,9.8 17.2,11.3 17.6,13.4 C17.6,13.6 17.9,13.8 18.1,13.8 L18.2,13.8 C20.6,13.8 22.7,15.9 22.7,18.4 C22.7,20.9 20.6,23 18.2,23 L6.2,23 C3.8,23 1.8,20.9 1.8,18.4 L1.8,18.4 L1.8,18.4 L1.8,18.4 Z" id="Shape"></path>
                <path d="M12.4,5.8 C12.5,5.9 12.6,5.9 12.8,5.9 C12.9,5.9 13.1,5.9 13.2,5.8 C13.4,5.6 13.4,5.3 13.2,5.1 L11.8,3.7 C11.6,3.5 11.3,3.5 11.1,3.7 C10.9,3.9 10.9,4.2 11.1,4.4 L12.4,5.8 L12.4,5.8 L12.4,5.8 L12.4,5.8 Z" id="Shape"></path>
                <path d="M24.8,5.9 C24.9,5.9 25.1,5.9 25.2,5.8 L26.6,4.4 C26.8,4.2 26.8,3.9 26.6,3.7 C26.4,3.5 26.1,3.5 25.9,3.7 L24.5,5.1 C24.3,5.3 24.3,5.6 24.5,5.8 C24.5,5.9 24.6,5.9 24.8,5.9 L24.8,5.9 L24.8,5.9 L24.8,5.9 Z" id="Shape"></path>
                <path d="M25,16.4 L26.4,17.8 C26.5,17.9 26.6,17.9 26.8,17.9 C26.9,17.9 27.1,17.9 27.2,17.8 C27.4,17.6 27.4,17.3 27.2,17.1 L25.8,15.7 C25.6,15.5 25.3,15.5 25.1,15.7 C24.8,15.9 24.8,16.2 25,16.4 L25,16.4 L25,16.4 L25,16.4 Z" id="Shape"></path>
            </g>
        </g>
    </g>
</svg>