<?xml version="1.0" encoding="UTF-8"?>
<svg width="16px" height="5px" viewBox="0 0 16 5" version="1.1" xmlns="http://www.w3.org/2000/svg" xmlns:xlink="http://www.w3.org/1999/xlink">
    <!-- Generator: Sketch 3.6.1 (26313) - http://www.bohemiancoding.com/sketch -->
    <title>Mist</title>
    <desc>Created with Sketch.</desc>
    <defs></defs>
    <g id="Page-1" stroke="none" stroke-width="1" fill-rule="evenodd">
        <g id="weather_icons" transform="translate(-216.000000, -66.000000)">
            <g id="Mist" transform="translate(216.000000, 66.000000)">
                <path d="M15,4 L1,4 C0.7,4 0.5,4.2 0.5,4.5 C0.5,4.8 0.7,5 1,5 L15,5 C15.3,5 15.5,4.8 15.5,4.5 C15.5,4.2 15.3,4 15,4 L15,4 L15,4 L15,4 Z" id="Shape"></path>
                <path d="M15,2 L1,2 C0.7,2 0.5,2.2 0.5,2.5 C0.5,2.8 0.7,3 1,3 L15,3 C15.3,3 15.5,2.8 15.5,2.5 C15.5,2.2 15.3,2 15,2 L15,2 L15,2 L15,2 Z" id="Shape"></path>
                <path d="M15,0 L1,0 C0.7,0 0.5,0.2 0.5,0.5 C0.5,0.8 0.7,1 1,1 L15,1 C15.3,1 15.5,0.8 15.5,0.5 C15.5,0.2 15.3,0 15,0 L15,0 L15,0 L15,0 Z" id="Shape"></path>
            </g>
        </g>
    </g>
</svg>