<?xml version="1.0" encoding="UTF-8"?>
<svg width="24px" height="24px" viewBox="0 0 24 24" version="1.1" xmlns="http://www.w3.org/2000/svg" xmlns:xlink="http://www.w3.org/1999/xlink">
    <!-- Generator: Sketch 3.6.1 (26313) - http://www.bohemiancoding.com/sketch -->
    <title>Rain</title>
    <desc>Created with Sketch.</desc>
    <defs></defs>
    <g id="Page-1" stroke="none" stroke-width="1" fill-rule="evenodd">
        <g id="weather_icons" transform="translate(-420.000000, -56.000000)">
            <g id="Rain" transform="translate(420.000000, 56.000000)">
                <path d="M6,17 L18,17 C21.1,17 23.5,13.8 23.5,10.9 C23.5,8.1 21.3,5 18.3,4.8 C17.6,2.5 15.5,0.8 13,0.8 C10.4,0.8 8.2,2.6 7.7,5.1 C7.2,4.9 6.6,4.8 6,4.8 C2.9,4.8 0.5,8 0.5,10.9 C0.5,13.8 2.9,17 6,17 L6,17 L6,17 L6,17 Z M6,5.7 C6.6,5.7 7.3,5.8 7.8,6.1 C7.9,6.2 8.1,6.2 8.3,6.1 C8.4,6 8.5,5.9 8.5,5.7 C8.8,3.4 10.7,1.7 12.9,1.7 C15,1.7 16.9,3.2 17.3,5.3 C17.3,5.5 17.6,5.7 17.8,5.7 L17.9,5.7 C20.4,5.7 22.4,8.5 22.4,10.8 C22.4,13.1 20.4,15.9 17.9,15.9 L5.9,15.9 C3.4,15.9 1.4,13.1 1.4,10.8 C1.4,8.5 3.5,5.7 6,5.7 L6,5.7 L6,5.7 L6,5.7 Z" id="Shape"></path>
                <path d="M13,19 L13,23 C13,23.3 13.2,23.5 13.5,23.5 C13.8,23.5 14,23.3 14,23 L14,19 C14,18.7 13.8,18.5 13.5,18.5 C13.2,18.5 13,18.7 13,19 L13,19 L13,19 L13,19 Z" id="Shape"></path>
                <path d="M10,19 L10,21 C10,21.3 10.2,21.5 10.5,21.5 C10.8,21.5 11,21.3 11,21 L11,19 C11,18.7 10.8,18.5 10.5,18.5 C10.2,18.5 10,18.7 10,19 L10,19 L10,19 L10,19 Z" id="Shape"></path>
                <path d="M16,19 L16,21 C16,21.3 16.2,21.5 16.5,21.5 C16.8,21.5 17,21.3 17,21 L17,19 C17,18.7 16.8,18.5 16.5,18.5 C16.2,18.5 16,18.7 16,19 L16,19 L16,19 L16,19 Z" id="Shape"></path>
                <path d="M7,19 L7,23 C7,23.3 7.2,23.5 7.5,23.5 C7.8,23.5 8,23.3 8,23 L8,19 C8,18.7 7.8,18.5 7.5,18.5 C7.2,18.5 7,18.7 7,19 L7,19 L7,19 L7,19 Z" id="Shape"></path>
            </g>
        </g>
    </g>
</svg>