<?xml version="1.0" encoding="UTF-8"?>
<svg width="24px" height="17px" viewBox="0 0 24 17" version="1.1" xmlns="http://www.w3.org/2000/svg" xmlns:xlink="http://www.w3.org/1999/xlink">
    <!-- Generator: Sketch 3.6.1 (26313) - http://www.bohemiancoding.com/sketch -->
    <title>Scattered clouds</title>
    <desc>Created with Sketch.</desc>
    <defs></defs>
    <g id="Page-1" stroke="none" stroke-width="1" fill-rule="evenodd">
        <g id="weather_icons" transform="translate(-56.000000, -107.000000)">
            <g id="Scattered-clouds" transform="translate(56.000000, 107.000000)">
                <path d="M18.3,4.9 C17.6,2.6 15.5,0.9 13,0.9 C10.4,0.9 8.2,2.7 7.7,5.2 C7.2,5 6.6,4.9 6,4.9 C3.1,4.9 0.5,7.7 0.5,10.9 C0.5,14.1 3.1,16.9 6,16.9 L18,16.9 C20.9,16.9 23.5,14.1 23.5,10.9 C23.5,7.8 21.1,5.1 18.3,4.9 L18.3,4.9 L18.3,4.9 L18.3,4.9 Z M18,16 L6,16 C3.4,16 1.5,13.3 1.5,11 C1.5,8.6 3.4,6 6,6 C6.6,6 7.3,6.1 7.8,6.4 C7.9,6.5 8.1,6.5 8.3,6.4 C8.4,6.3 8.5,6.2 8.5,6 C8.8,3.7 10.7,2 12.9,2 C15,2 16.9,3.5 17.3,5.6 C17.3,5.8 17.6,6 17.8,6 L17.9,6 C20.5,6 22.4,8.7 22.4,11 C22.5,13.3 20.6,16 18,16 L18,16 L18,16 L18,16 Z" id="Shape"></path>
            </g>
        </g>
    </g>
</svg>