<?xml version="1.0" encoding="UTF-8"?>
<svg width="24px" height="26px" viewBox="0 0 24 26" version="1.1" xmlns="http://www.w3.org/2000/svg" xmlns:xlink="http://www.w3.org/1999/xlink">
    <!-- Generator: Sketch 3.6.1 (26313) - http://www.bohemiancoding.com/sketch -->
    <title>Shower rain</title>
    <desc>Created with Sketch.</desc>
    <defs></defs>
    <g id="Page-1" stroke="none" stroke-width="1" fill-rule="evenodd">
        <g id="weather_icons" transform="translate(-264.000000, -107.000000)">
            <g id="Shower-rain" transform="translate(264.000000, 107.000000)">
                <path d="M8,18 C8,17.7 7.8,17.5 7.5,17.5 C7.2,17.5 7,17.7 7,18 L7,22 C7,22.3 7.2,22.5 7.5,22.5 C7.8,22.5 8,22.3 8,22 L8,18 L8,18 L8,18 L8,18 Z" id="Shape"></path>
                <path d="M14,20 C14,19.7 13.8,19.5 13.5,19.5 C13.2,19.5 13,19.7 13,20 L13,24 C13,24.3 13.2,24.5 13.5,24.5 C13.8,24.5 14,24.3 14,24 L14,20 L14,20 L14,20 L14,20 Z" id="Shape"></path>
                <path d="M11,18 C11,17.7 10.8,17.5 10.5,17.5 C10.2,17.5 10,17.7 10,18 L10,20 C10,20.3 10.2,20.5 10.5,20.5 C10.8,20.5 11,20.3 11,20 L11,18 L11,18 L11,18 L11,18 Z" id="Shape"></path>
                <path d="M17,18 C17,17.7 16.8,17.5 16.5,17.5 C16.2,17.5 16,17.7 16,18 L16,20 C16,20.3 16.2,20.5 16.5,20.5 C16.8,20.5 17,20.3 17,20 L17,18 L17,18 L17,18 L17,18 Z" id="Shape"></path>
                <path d="M23.3,10.2 C23.3,7.2 20.9,4.6 18.1,4.4 C17.4,2.1 15.3,0.4 12.8,0.4 C10.2,0.4 8,2.2 7.5,4.7 C7,4.5 6.4,4.4 5.8,4.4 C2.8,4.4 0.3,7.1 0.3,10.2 C0.3,13.3 2.8,16 5.8,16 L17.8,16 C20.8,16 23.3,13.3 23.3,10.2 L23.3,10.2 L23.3,10.2 L23.3,10.2 Z M1.3,10.2 C1.3,7.6 3.4,5.4 5.8,5.4 C6.4,5.4 7.1,5.5 7.6,5.8 C7.7,5.9 7.9,5.9 8.1,5.8 C8.2,5.7 8.3,5.6 8.4,5.4 C8.7,3.1 10.6,1.4 12.8,1.4 C14.9,1.4 16.8,2.9 17.2,5 C17.2,5.2 17.5,5.4 17.7,5.4 L17.8,5.4 C20.2,5.4 22.3,7.6 22.3,10.2 C22.3,12.8 20.2,15 17.8,15 L5.8,15 C3.4,15 1.3,12.8 1.3,10.2 L1.3,10.2 L1.3,10.2 L1.3,10.2 Z" id="Shape"></path>
                <circle id="Oval" cx="10.4" cy="22.6" r="0.5"></circle>
                <circle id="Oval" cx="16.4" cy="22.6" r="0.5"></circle>
                <circle id="Oval" cx="13.4" cy="24.6" r="0.5"></circle>
                <circle id="Oval" cx="7.4" cy="24.6" r="0.5"></circle>
            </g>
        </g>
    </g>
</svg>