<?xml version="1.0" encoding="UTF-8"?>
<svg width="24px" height="23px" viewBox="0 0 24 23" version="1.1" xmlns="http://www.w3.org/2000/svg" xmlns:xlink="http://www.w3.org/1999/xlink">
    <!-- Generator: Sketch 3.6.1 (26313) - http://www.bohemiancoding.com/sketch -->
    <title>Snow</title>
    <desc>Created with Sketch.</desc>
    <defs></defs>
    <g id="Page-1" stroke="none" stroke-width="1" fill-rule="evenodd">
        <g id="weather_icons" transform="translate(-212.000000, -109.000000)">
            <g id="Snow" transform="translate(212.000000, 109.000000)">
                <path d="M5.8,16 L17.8,16 C20.7,16 23.3,13.2 23.3,10 C23.3,6.9 20.9,4.2 18.1,4 C17.4,1.7 15.3,0 12.8,0 C10.2,0 8,1.8 7.5,4.3 C7,4.1 6.4,4 5.8,4 C2.9,4 0.3,6.8 0.3,10 C0.3,13.2 2.9,16 5.8,16 L5.8,16 L5.8,16 L5.8,16 Z M5.8,5 C6.4,5 7.1,5.1 7.6,5.4 C7.7,5.5 7.9,5.5 8.1,5.4 C8.2,5.3 8.3,5.2 8.3,5 C8.6,2.7 10.5,1 12.7,1 C14.8,1 16.7,2.5 17.1,4.6 C17.1,4.8 17.4,5 17.6,5 L17.7,5 C20.3,5 22.2,7.6 22.2,10 C22.2,12.4 20.3,15 17.7,15 L5.7,15 C3.1,15 1.2,12.4 1.2,10 C1.2,7.6 3.3,5 5.8,5 L5.8,5 L5.8,5 L5.8,5 Z" id="Shape"></path>
                <circle id="Oval" cx="8.8" cy="20" r="0.5"></circle>
                <circle id="Oval" cx="13.8" cy="20" r="0.5"></circle>
                <circle id="Oval" cx="11.8" cy="18" r="0.5"></circle>
                <circle id="Oval" cx="16.8" cy="18" r="0.5"></circle>
                <circle id="Oval" cx="10.8" cy="22" r="0.5"></circle>
                <circle id="Oval" cx="6.8" cy="18" r="0.5"></circle>
            </g>
        </g>
    </g>
</svg>