<?xml version="1.0" encoding="UTF-8"?>
<svg width="32px" height="32px" viewBox="0 0 32 32" version="1.1" xmlns="http://www.w3.org/2000/svg" xmlns:xlink="http://www.w3.org/1999/xlink">
    <!-- Generator: Sketch 3.6.1 (26313) - http://www.bohemiancoding.com/sketch -->
    <title>Sun</title>
    <desc>Created with Sketch.</desc>
    <defs></defs>
    <g id="Page-1" stroke="none" stroke-width="1" fill-rule="evenodd">
        <g id="weather_icons">
            <g id="Sun">
                <path d="M16.2,23.8 C20.6,23.8 24.2,20.2 24.2,15.8 C24.2,11.4 20.6,7.8 16.2,7.8 C11.8,7.8 8.2,11.4 8.2,15.8 C8.2,20.2 11.8,23.8 16.2,23.8 L16.2,23.8 L16.2,23.8 L16.2,23.8 Z M16.2,8.8 C20.1,8.8 23.2,11.9 23.2,15.8 C23.2,19.7 20.1,22.8 16.2,22.8 C12.3,22.8 9.2,19.7 9.2,15.8 C9.2,12 12.3,8.8 16.2,8.8 L16.2,8.8 L16.2,8.8 L16.2,8.8 Z" id="Shape"></path>
                <path d="M15.5,5.5 C15.8,5.5 16,5.3 16,5 L16,1 C16,0.7 15.8,0.5 15.5,0.5 C15.2,0.5 15,0.7 15,1 L15,5 C15,5.3 15.2,5.5 15.5,5.5 L15.5,5.5 L15.5,5.5 L15.5,5.5 Z" id="Shape"></path>
                <path d="M16,31 L16,27 C16,26.7 15.8,26.5 15.5,26.5 C15.2,26.5 15,26.7 15,27 L15,31 C15,31.3 15.2,31.5 15.5,31.5 C15.8,31.5 16,31.3 16,31 L16,31 L16,31 L16,31 Z" id="Shape"></path>
                <path d="M5.5,16.5 C5.5,16.2 5.3,16 5,16 L1,16 C0.7,16 0.5,16.2 0.5,16.5 C0.5,16.8 0.7,17 1,17 L5,17 C5.3,17 5.5,16.8 5.5,16.5 L5.5,16.5 L5.5,16.5 L5.5,16.5 Z" id="Shape"></path>
                <path d="M31,16 L27,16 C26.7,16 26.5,16.2 26.5,16.5 C26.5,16.8 26.7,17 27,17 L31,17 C31.3,17 31.5,16.8 31.5,16.5 C31.5,16.2 31.3,16 31,16 L31,16 L31,16 L31,16 Z" id="Shape"></path>
                <path d="M6.1,26.8 L8.9,24 C9.1,23.8 9.1,23.5 8.9,23.3 C8.7,23.1 8.4,23.1 8.2,23.3 L5.4,26.1 C5.2,26.3 5.2,26.6 5.4,26.8 C5.5,26.9 5.6,26.9 5.8,26.9 C6,26.9 6,26.9 6.1,26.8 L6.1,26.8 L6.1,26.8 L6.1,26.8 Z" id="Shape"></path>
                <path d="M24.1,8.6 C24.2,8.6 24.4,8.6 24.5,8.5 L27.3,5.7 C27.5,5.5 27.5,5.2 27.3,5 C27.1,4.8 26.8,4.8 26.6,5 L23.8,7.8 C23.6,8 23.6,8.3 23.8,8.5 C23.9,8.5 24,8.6 24.1,8.6 L24.1,8.6 L24.1,8.6 L24.1,8.6 Z" id="Shape"></path>
                <path d="M24.5,23.3 C24.3,23.1 24,23.1 23.8,23.3 C23.6,23.5 23.6,23.8 23.8,24 L26.6,26.8 C26.7,26.9 26.8,26.9 27,26.9 C27.1,26.9 27.3,26.9 27.4,26.8 C27.6,26.6 27.6,26.3 27.4,26.1 L24.5,23.3 L24.5,23.3 L24.5,23.3 L24.5,23.3 Z" id="Shape"></path>
                <path d="M8.2,8.4 C8.3,8.5 8.4,8.5 8.6,8.5 C8.8,8.5 8.9,8.5 9,8.4 C9.2,8.2 9.2,7.9 9,7.7 L6.2,4.9 C6,4.7 5.7,4.7 5.5,4.9 C5.3,5.1 5.3,5.4 5.5,5.6 L8.2,8.4 L8.2,8.4 L8.2,8.4 L8.2,8.4 Z" id="Shape"></path>
            </g>
        </g>
    </g>
</svg>