<?xml version="1.0" encoding="UTF-8"?>
<svg width="24px" height="26px" viewBox="0 0 24 26" version="1.1" xmlns="http://www.w3.org/2000/svg" xmlns:xlink="http://www.w3.org/1999/xlink">
    <!-- Generator: Sketch 3.6.1 (26313) - http://www.bohemiancoding.com/sketch -->
    <title>Thunderstorm</title>
    <desc>Created with Sketch.</desc>
    <defs></defs>
    <g id="Page-1" stroke="none" stroke-width="1" fill-rule="evenodd">
        <g id="weather_icons" transform="translate(-160.000000, -107.000000)">
            <g id="Thunderstorm" transform="translate(160.000000, 107.000000)">
                <path d="M18.3,4.4 C17.6,2.1 15.5,0.4 13,0.4 C10.4,0.4 8.2,2.2 7.7,4.7 C7.2,4.5 6.6,4.4 6,4.4 C3,4.4 0.5,7.1 0.5,10.2 C0.5,13.3 3,16 6,16 L18,16 C21,16 23.5,13.3 23.5,10.2 C23.5,7.2 21.1,4.6 18.3,4.4 L18.3,4.4 L18.3,4.4 L18.3,4.4 Z M18,15 L6,15 C3.6,15 1.5,12.8 1.5,10.2 C1.5,7.6 3.6,5.4 6,5.4 C6.6,5.4 7.3,5.5 7.8,5.8 C7.9,5.9 8.1,5.9 8.3,5.8 C8.4,5.7 8.5,5.6 8.5,5.4 C8.8,3.1 10.7,1.4 12.9,1.4 C15,1.4 16.9,2.9 17.3,5 C17.3,5.2 17.6,5.4 17.8,5.4 L17.9,5.4 C20.3,5.4 22.4,7.6 22.4,10.2 C22.5,12.8 20.4,15 18,15 L18,15 L18,15 L18,15 Z" id="Shape"></path>
                <path d="M6.5,25.1 C6.6,25.2 6.7,25.2 6.8,25.2 C6.9,25.2 7.1,25.1 7.2,25 L10.4,21.7 C10.5,21.6 10.6,21.3 10.5,21.2 C10.4,21 10.2,20.9 10,20.9 L8.8,20.9 L10.8,19 C11,18.8 11,18.5 10.8,18.3 C10.6,18.1 10.3,18.1 10.1,18.3 L7.2,21 C7,21.1 7,21.4 7.1,21.5 C7.2,21.7 7.4,21.8 7.6,21.8 L8.9,21.8 L6.6,24.2 C6.3,24.6 6.3,24.9 6.5,25.1 L6.5,25.1 L6.5,25.1 L6.5,25.1 Z" id="Shape"></path>
                <path d="M14.6,21.3 L17.1,18.8 C17.3,18.6 17.3,18.3 17.1,18.1 C16.9,17.9 16.6,17.9 16.4,18.1 L13.9,20.6 C13.7,20.8 13.7,21.1 13.9,21.3 C14,21.4 14.1,21.4 14.3,21.4 C14.4,21.4 14.5,21.4 14.6,21.3 L14.6,21.3 L14.6,21.3 L14.6,21.3 Z" id="Shape"></path>
                <path d="M12.1,23.8 L13.1,22.8 C13.3,22.6 13.3,22.3 13.1,22.1 C12.9,21.9 12.6,21.9 12.4,22.1 L11.4,23.1 C11.2,23.3 11.2,23.6 11.4,23.8 C11.5,23.9 11.6,23.9 11.8,23.9 C11.9,23.9 12,23.9 12.1,23.8 L12.1,23.8 L12.1,23.8 L12.1,23.8 Z" id="Shape"></path>
                <path d="M3.6,21.3 L6.1,18.8 C6.3,18.6 6.3,18.3 6.1,18.1 C5.9,17.9 5.6,17.9 5.4,18.1 L2.9,20.6 C2.7,20.8 2.7,21.1 2.9,21.3 C3,21.4 3.1,21.4 3.3,21.4 C3.4,21.4 3.5,21.4 3.6,21.3 L3.6,21.3 L3.6,21.3 L3.6,21.3 Z" id="Shape"></path>
                <path d="M1.1,23.8 L2.1,22.8 C2.3,22.6 2.3,22.3 2.1,22.1 C1.9,21.9 1.6,21.9 1.4,22.1 L0.4,23.1 C0.2,23.3 0.2,23.6 0.4,23.8 C0.5,23.9 0.6,23.9 0.8,23.9 C0.9,23.9 1,23.9 1.1,23.8 L1.1,23.8 L1.1,23.8 L1.1,23.8 Z" id="Shape"></path>
            </g>
        </g>
    </g>
</svg>